<?xml version="1.0" encoding="UTF-8" standalone="no"?>
<svg
   xmlns:dc="http://purl.org/dc/elements/1.1/"
   xmlns:cc="http://creativecommons.org/ns#"
   xmlns:rdf="http://www.w3.org/1999/02/22-rdf-syntax-ns#"
   xmlns:svg="http://www.w3.org/2000/svg"
   xmlns="http://www.w3.org/2000/svg"
   xmlns:sodipodi="http://sodipodi.sourceforge.net/DTD/sodipodi-0.dtd"
   xmlns:inkscape="http://www.inkscape.org/namespaces/inkscape"
   sodipodi:docname="12-Star.svg"
   inkscape:version="1.0 (4035a4fb49, 2020-05-01)"
   width="100.0mm"
   height="100.0mm"
   viewBox="0 0 100.0 100.0"
   version="1.1"
   id="svg8">
  <defs
     id="defs2">
    <marker
       inkscape:stockid="TriangleInM"
       orient="auto"
       refY="0.0"
       refX="0.0"
       id="TriangleInM"
       style="overflow:visible"
       inkscape:isstock="true">
      <path
         id="path1047"
         d="M 5.77,0.0 L -2.88,5.0 L -2.88,-5.0 L 5.77,0.0 z "
         style="fill-rule:evenodd;stroke:#000000;stroke-width:1pt;stroke-opacity:1;fill:#000000;fill-opacity:1"
         transform="scale(-0.4)" />
    </marker>
  </defs>
  <sodipodi:namedview
     id="base"
     pagecolor="#ffffff"
     bordercolor="#666666"
     borderopacity="1.0"
     inkscape:pageopacity="0.0"
     inkscape:pageshadow="2"
     inkscape:zoom="3.959798"
     inkscape:cx="111.7301"
     inkscape:cy="207.18973"
     inkscape:document-units="mm"
     inkscape:current-layer="g842"
     inkscape:document-rotation="0"
     showgrid="false"
     inkscape:window-width="1920"
     inkscape:window-height="1018"
     inkscape:window-x="-6"
     inkscape:window-y="-6"
     inkscape:window-maximized="1"
     inkscape:snap-bbox="false">
    <inkscape:grid
       type="xygrid"
       id="grid881" />
  </sodipodi:namedview>
  <metadata
     id="metadata5">
    <rdf:RDF>
      <cc:Work
         rdf:about="">
        <dc:format>image/svg+xml</dc:format>
        <dc:type
           rdf:resource="http://purl.org/dc/dcmitype/StillImage" />
        <dc:title />
      </cc:Work>
    </rdf:RDF>
  </metadata>
  <g
     id="g838"
     inkscape:groupmode="layer"
     inkscape:label="[fixed] BG"
     style="display:inline">
    <rect
       id="rect836"
       style="fill:#ffffff;fill-opacity:1;stroke:none"
       height="100"
       width="100"
       y="0"
       x="0" />
  </g>
  <g
     id="g840"
     inkscape:groupmode="layer"
     inkscape:label="Edge.Cuts"
     style="display:inline"
     sodipodi:insensitive="true">
    <path
       style="display:inline;fill:none;stroke:#000000;stroke-width:0.264583px;stroke-linecap:butt;stroke-linejoin:miter;stroke-opacity:1"
       d="M 50.2708 5.29167 L 46.3021 39.6875 L 33.0729 29.1042 L 42.3333 44.9792 L 15.875 48.9479 L 42.3333 52.9167 L 33.0729 68.7917 L 46.3021 58.2083 L 50.2708 93.9271 L 54.2396 58.2083 L 67.4688 68.7917 L 58.2083 52.9167 L 84.6667 48.9479 L 58.2083 44.9792 L 67.4687 29.1042 L 54.2396 39.6875 L 50.2708 5.29167"
       id="path883"
       sodipodi:nodetypes="ccccccccccccccccc" />
  </g>
  <g
     id="g842"
     inkscape:groupmode="layer"
     inkscape:label="B.Cu"
     style="display:inline">
    <path
       style="display:inline;fill:#377346;fill-opacity:1;stroke:#000000;stroke-width:0.264583px;stroke-linecap:butt;stroke-linejoin:miter;stroke-opacity:1"
       d="m 50.270833,5.2916682 -3.96875,34.3958328 -13.229167,-10.583333 9.260417,15.874999 -26.458332,3.96875 26.458332,3.96875 -9.260416,15.875003 13.229166,-10.583336 3.96875,35.71875 3.96875,-35.71875 L 67.46875,68.79167 58.208333,52.916667 84.666667,48.947917 58.208333,44.979167 67.46875,29.104168 54.239583,39.687501 Z"
       id="path883-5-6"
       sodipodi:nodetypes="ccccccccccccccccc" />
  </g>
  <g
     sodipodi:insensitive="true"
     id="g844"
     inkscape:groupmode="layer"
     inkscape:label="B.Mask"
     style="display:inline">
    <path
       id="path898-0"
       d="M 15.874984,48.947916 44.979151,46.302083 33.072885,29.1042 42.333283,44.979201 Z"
       style="display:inline;fill:#f2da36;fill-opacity:0.875;stroke:#000000;stroke-width:0.264583px;stroke-linecap:butt;stroke-linejoin:miter;stroke-opacity:1" />
    <path
       id="path900-5"
       d="M 15.874984,48.947916 44.979151,51.59375 33.072901,68.791666 42.333283,52.916701 Z"
       style="display:inline;fill:#f2da36;fill-opacity:0.875;stroke:#000000;stroke-width:0.264583px;stroke-linecap:butt;stroke-linejoin:miter;stroke-opacity:1" />
    <path
       id="path902-6"
       d="m 33.072885,68.791701 13.229198,-10.583402 3.968734,35.718784 -2.645833,-39.6875 z"
       style="display:inline;fill:#f2da36;fill-opacity:0.875;stroke:#000000;stroke-width:0.264583px;stroke-linecap:butt;stroke-linejoin:miter;stroke-opacity:1" />
    <path
       id="path904-6"
       d="M 50.270783,93.927099 52.916651,54.239583 67.468784,68.791701 54.239567,58.208333 Z"
       style="display:inline;fill:#f2da36;fill-opacity:0.875;stroke:#000000;stroke-width:0.264583px;stroke-linecap:butt;stroke-linejoin:miter;stroke-opacity:1" />
    <path
       id="path906-6"
       d="M 67.468734,68.791666 55.562484,51.59375 84.666685,48.9479 58.208317,52.916666 Z"
       style="display:inline;fill:#f2da36;fill-opacity:0.875;stroke:#000000;stroke-width:0.264583px;stroke-linecap:butt;stroke-linejoin:miter;stroke-opacity:1" />
    <path
       id="path908-7"
       d="M 84.666651,48.947916 55.562484,46.302083 67.468684,29.1042 58.208317,44.979166 Z"
       style="display:inline;fill:#f2da36;fill-opacity:0.875;stroke:#000000;stroke-width:0.264583px;stroke-linecap:butt;stroke-linejoin:miter;stroke-opacity:1" />
    <path
       id="path910-3"
       d="M 67.468684,29.1042 52.916651,43.65625 50.270817,5.2916673 54.239583,39.6875 Z"
       style="display:inline;fill:#f2da36;fill-opacity:0.875;stroke:#000000;stroke-width:0.264583px;stroke-linecap:butt;stroke-linejoin:miter;stroke-opacity:1" />
    <path
       id="path912-4"
       d="M 50.270783,5.291669 47.624983,43.65625 33.072901,29.104166 46.302083,39.6875 Z"
       style="display:inline;fill:#f2da36;fill-opacity:0.875;stroke:#000000;stroke-width:0.264583px;stroke-linecap:butt;stroke-linejoin:miter;stroke-opacity:1" />
  </g>
  <g
     sodipodi:insensitive="true"
     id="g846"
     inkscape:groupmode="layer"
     inkscape:label="B.SilkS"
     style="display:inline">
    <path
       id="path1189-2"
       d="M 33.072916,29.104166 47.624999,47.624999 15.875,48.947916 l 31.749999,1.322917 -14.552083,18.520833 15.875,-17.197917 1.322919,42.333334 1.322914,-42.333334 15.875,17.197917 L 52.916666,50.270833 84.666668,48.947916 52.916666,47.624999 67.468749,29.104166 51.593749,46.302083 50.270835,5.2916666 48.947916,46.302083 Z"
       style="display:inline;fill:#fafafa;fill-opacity:1;stroke:#000000;stroke-width:0.264583px;stroke-linecap:butt;stroke-linejoin:miter;stroke-opacity:1" />
  </g>
  <g
     id="g848"
     inkscape:groupmode="layer"
     inkscape:label="F.Cu"
     style="display:inline">
    <path
       sodipodi:nodetypes="ccccccccccccccccc"
       id="path883-5"
       d="M 50.270833,5.2916678 46.302083,39.6875 33.072916,29.104168 42.333333,44.979167 15.875,48.947917 l 26.458333,3.96875 -9.260416,15.875002 13.229166,-10.583336 3.96875,35.71875 3.96875,-35.71875 L 67.46875,68.791669 58.208333,52.916667 84.666667,48.947917 58.208333,44.979167 67.46875,29.104168 54.239583,39.6875 Z"
       style="display:inline;fill:#377346;fill-opacity:1;stroke:#000000;stroke-width:0.264583px;stroke-linecap:butt;stroke-linejoin:miter;stroke-opacity:1" />
  </g>
  <g
     sodipodi:insensitive="true"
     id="g850"
     inkscape:groupmode="layer"
     inkscape:label="F.Mask"
     style="display:inline">
    <path
       style="fill:#f2da36;fill-opacity:0.875;stroke:#000000;stroke-width:0.264583px;stroke-linecap:butt;stroke-linejoin:miter;stroke-opacity:1"
       d="M 15.875,48.947916 44.979166,46.302083 33.0729,29.104201 42.333298,44.9792 Z"
       id="path898" />
    <path
       style="fill:#f2da36;fill-opacity:0.875;stroke:#000000;stroke-width:0.264583px;stroke-linecap:butt;stroke-linejoin:miter;stroke-opacity:1"
       d="M 15.875,48.947916 44.979166,51.593749 33.072916,68.791666 42.333298,52.9167 Z"
       id="path900" />
    <path
       style="fill:#f2da36;fill-opacity:0.875;stroke:#000000;stroke-width:0.264583px;stroke-linecap:butt;stroke-linejoin:miter;stroke-opacity:1"
       d="M 33.0729,68.7917 46.302099,58.208298 50.270833,93.927082 47.624999,54.239583 Z"
       id="path902" />
    <path
       style="fill:#f2da36;fill-opacity:0.875;stroke:#000000;stroke-width:0.264583px;stroke-linecap:butt;stroke-linejoin:miter;stroke-opacity:1"
       d="M 50.270798,93.927098 52.916666,54.239583 67.468799,68.7917 54.239583,58.208333 Z"
       id="path904" />
    <path
       style="fill:#f2da36;fill-opacity:0.875;stroke:#000000;stroke-width:0.264583px;stroke-linecap:butt;stroke-linejoin:miter;stroke-opacity:1"
       d="M 67.468749,68.791666 55.562499,51.593749 84.6667,48.9479 58.208333,52.916666 Z"
       id="path906" />
    <path
       style="fill:#f2da36;fill-opacity:0.875;stroke:#000000;stroke-width:0.264583px;stroke-linecap:butt;stroke-linejoin:miter;stroke-opacity:1"
       d="M 84.666666,48.947916 55.562499,46.302083 67.468699,29.104201 58.208333,44.979166 Z"
       id="path908" />
    <path
       style="fill:#f2da36;fill-opacity:0.875;stroke:#000000;stroke-width:0.264583px;stroke-linecap:butt;stroke-linejoin:miter;stroke-opacity:1"
       d="M 67.468699,29.104201 52.916666,43.656249 50.270833,5.2916677 54.239599,39.6875 Z"
       id="path910" />
    <path
       style="fill:#f2da36;fill-opacity:0.875;stroke:#000000;stroke-width:0.264583px;stroke-linecap:butt;stroke-linejoin:miter;stroke-opacity:1"
       d="M 50.270798,5.29167 47.624999,43.656249 33.072916,29.104166 46.302099,39.6875 Z"
       id="path912" />
  </g>
  <g
     sodipodi:insensitive="true"
     id="g852"
     inkscape:groupmode="layer"
     inkscape:label="F.SilkS"
     style="display:inline">
    <path
       style="display:inline;fill:#fafafa;fill-opacity:1;stroke:#000000;stroke-width:0.264583px;stroke-linecap:butt;stroke-linejoin:miter;stroke-opacity:1"
       d="M 33.072916,29.104166 47.624999,47.624999 15.875,48.947916 l 31.749999,1.322917 -14.552083,18.520833 15.875,-17.197917 1.322917,42.333333 1.322916,-42.333333 15.875,17.197917 -14.552083,-18.520833 31.75,-1.322917 -31.75,-1.322917 14.552083,-18.520833 -15.875,17.197917 L 50.270833,5.2916666 48.947916,46.302083 Z"
       id="path1189" />
  </g>
  <g
     id="g854"
     inkscape:groupmode="layer"
     inkscape:label="Dwgs.User"
     sodipodi:insensitive="true"
     style="display:inline" />
</svg>
